<?xml version="1.0" encoding="UTF-8"?>
<!DOCTYPE svg PUBLIC "-//W3C//DTD SVG 1.1//EN" "http://www.w3.org/Graphics/SVG/1.1/DTD/svg11.dtd">
<!-- Creator: CorelDRAW -->
<svg xmlns="http://www.w3.org/2000/svg" xml:space="preserve" width="713px" height="713px" version="1.1" style="shape-rendering:geometricPrecision; text-rendering:geometricPrecision; image-rendering:optimizeQuality; fill-rule:evenodd; clip-rule:evenodd"
viewBox="0 0 711.32 711.32"
 xmlns:xlink="http://www.w3.org/1999/xlink"
 xmlns:xodm="http://www.corel.com/coreldraw/odm/2003">
 <defs>
  <style type="text/css">
   <![CDATA[
    .fil1 {fill:black}
    .fil0 {fill:white}
   ]]>
  </style>
 </defs>
 <g id="Layer_x0020_1">
  <metadata id="CorelCorpID_0Corel-Layer"/>
  <rect class="fil0" width="711.32" height="711.32"/>
  <path class="fil1" d="M170.83 90.47l369.67 0c44.19,0 80.35,36.16 80.35,80.36l0 369.66c0,44.2 -36.16,80.36 -80.35,80.36l-369.67 0c-44.2,0 -80.36,-36.16 -80.36,-80.36l0 -369.66c0,-44.2 36.16,-80.36 80.36,-80.36zm81.76 320.45l202.03 0c41.23,0 74.97,-33.74 74.97,-74.98l0 -39.07c0,-40.6 -33.24,-73.82 -73.82,-73.82l-203.18 0 -70.86 0 0 70.87 70.86 0 141.22 0 66.49 0 0 48.25 -66.49 0 -141.22 0 -70.86 0 0 68.75 0 90.54 70.86 0 0 -90.54z"/>
 </g>
</svg>
